<svg width="189" height="100" viewBox="0 0 189 100" fill="none" xmlns="http://www.w3.org/2000/svg">
<path d="M183 71.186C183 55.4707 170.26 42.731 154.545 42.731H28.455C12.7398 42.731 0 55.4707 0 71.186C0 86.9013 12.7397 99.641 28.455 99.641H154.545C170.26 99.641 183 86.9013 183 71.186Z" fill="#417DFF"/>
<path d="M16.2784 77.731V66.0946H20.4261C21.3277 66.0946 22.0758 66.2499 22.6705 66.5605C23.2689 66.8711 23.7159 67.301 24.0114 67.8503C24.3068 68.3957 24.4545 69.0264 24.4545 69.7423C24.4545 70.4544 24.3049 71.0813 24.0057 71.623C23.7102 72.1609 23.2633 72.5794 22.6648 72.8787C22.0701 73.1779 21.322 73.3275 20.4205 73.3275H17.2784V71.8162H20.2614C20.8295 71.8162 21.2917 71.7347 21.6477 71.5719C22.0076 71.409 22.2708 71.1722 22.4375 70.8616C22.6042 70.551 22.6875 70.1779 22.6875 69.7423C22.6875 69.3029 22.6023 68.9222 22.4318 68.6003C22.2652 68.2783 22.0019 68.0321 21.642 67.8616C21.286 67.6874 20.8182 67.6003 20.2386 67.6003H18.0341V77.731H16.2784ZM22.0227 72.481L24.8977 77.731H22.8977L20.0795 72.481H22.0227ZM30.1065 77.9071C29.2467 77.9071 28.5062 77.7234 27.8849 77.356C27.2675 76.9847 26.7902 76.4639 26.4531 75.7935C26.1198 75.1192 25.9531 74.3294 25.9531 73.4241C25.9531 72.5302 26.1198 71.7423 26.4531 71.0605C26.7902 70.3787 27.2599 69.8465 27.8622 69.4639C28.4683 69.0813 29.1766 68.89 29.9872 68.89C30.4796 68.89 30.9569 68.9715 31.419 69.1344C31.8812 69.2972 32.2959 69.5529 32.6634 69.9014C33.0308 70.2499 33.3205 70.7025 33.5327 71.2594C33.7448 71.8124 33.8509 72.4847 33.8509 73.2764V73.8787H26.9134V72.606H32.1861C32.1861 72.159 32.0952 71.7632 31.9134 71.4185C31.7315 71.07 31.4759 70.7954 31.1463 70.5946C30.8205 70.3938 30.438 70.2935 29.9986 70.2935C29.5213 70.2935 29.1046 70.4109 28.7486 70.6457C28.3963 70.8768 28.1236 71.1798 27.9304 71.5548C27.741 71.926 27.6463 72.3294 27.6463 72.765V73.7594C27.6463 74.3427 27.7486 74.8389 27.9531 75.248C28.1615 75.6571 28.4512 75.9696 28.8224 76.1855C29.1937 76.3976 29.6274 76.5037 30.1236 76.5037C30.4455 76.5037 30.7391 76.4582 31.0043 76.3673C31.2694 76.2726 31.4986 76.1325 31.6918 75.9469C31.8849 75.7613 32.0327 75.5321 32.1349 75.2594L33.7429 75.5491C33.6141 76.0226 33.383 76.4374 33.0497 76.7935C32.7202 77.1457 32.3054 77.4204 31.8054 77.6173C31.3092 77.8105 30.7429 77.9071 30.1065 77.9071ZM39.0028 77.9014C38.2983 77.9014 37.6695 77.7215 37.1165 77.3616C36.5672 76.998 36.1354 76.481 35.821 75.8105C35.5104 75.1363 35.3551 74.3275 35.3551 73.3844C35.3551 72.4412 35.5123 71.6344 35.8267 70.9639C36.1449 70.2935 36.5805 69.7802 37.1335 69.4241C37.6866 69.0681 38.3134 68.89 39.0142 68.89C39.5559 68.89 39.9915 68.981 40.321 69.1628C40.6544 69.3408 40.9119 69.5491 41.0938 69.7878C41.2794 70.0264 41.4233 70.2366 41.5256 70.4185H41.6278V66.0946H43.3267V77.731H41.6676V76.373H41.5256C41.4233 76.5586 41.2756 76.7707 41.0824 77.0094C40.893 77.248 40.6316 77.4563 40.2983 77.6344C39.965 77.8124 39.5331 77.9014 39.0028 77.9014ZM39.3778 76.4525C39.8665 76.4525 40.2794 76.3238 40.6165 76.0662C40.9574 75.8048 41.215 75.4431 41.3892 74.981C41.5672 74.5188 41.6562 73.981 41.6562 73.3673C41.6562 72.7613 41.5691 72.231 41.3949 71.7764C41.2206 71.3219 40.965 70.9677 40.6278 70.7139C40.2907 70.4601 39.8741 70.3332 39.3778 70.3332C38.8665 70.3332 38.4403 70.4658 38.0994 70.731C37.7585 70.9961 37.5009 71.3579 37.3267 71.8162C37.1563 72.2745 37.071 72.7916 37.071 73.3673C37.071 73.9507 37.1581 74.4753 37.3324 74.9412C37.5066 75.4071 37.7642 75.7764 38.1051 76.0491C38.4498 76.3181 38.8741 76.4525 39.3778 76.4525ZM49.5128 77.9071C48.6529 77.9071 47.9124 77.7234 47.2912 77.356C46.6738 76.9847 46.1965 76.4639 45.8594 75.7935C45.526 75.1192 45.3594 74.3294 45.3594 73.4241C45.3594 72.5302 45.526 71.7423 45.8594 71.0605C46.1965 70.3787 46.6662 69.8465 47.2685 69.4639C47.8745 69.0813 48.5829 68.89 49.3935 68.89C49.8859 68.89 50.3632 68.9715 50.8253 69.1344C51.2874 69.2972 51.7022 69.5529 52.0696 69.9014C52.437 70.2499 52.7268 70.7025 52.9389 71.2594C53.151 71.8124 53.2571 72.4847 53.2571 73.2764V73.8787H46.3196V72.606H51.5923C51.5923 72.159 51.5014 71.7632 51.3196 71.4185C51.1378 71.07 50.8821 70.7954 50.5526 70.5946C50.2268 70.3938 49.8442 70.2935 49.4048 70.2935C48.9276 70.2935 48.5109 70.4109 48.1548 70.6457C47.8026 70.8768 47.5298 71.1798 47.3366 71.5548C47.1473 71.926 47.0526 72.3294 47.0526 72.765V73.7594C47.0526 74.3427 47.1548 74.8389 47.3594 75.248C47.5677 75.6571 47.8575 75.9696 48.2287 76.1855C48.5999 76.3976 49.0336 76.5037 49.5298 76.5037C49.8518 76.5037 50.1454 76.4582 50.4105 76.3673C50.6757 76.2726 50.9048 76.1325 51.098 75.9469C51.2912 75.7613 51.4389 75.5321 51.5412 75.2594L53.1491 75.5491C53.0204 76.0226 52.7893 76.4374 52.456 76.7935C52.1264 77.1457 51.7116 77.4204 51.2116 77.6173C50.7154 77.8105 50.1491 77.9071 49.5128 77.9071ZM59.2955 69.0037V70.3673H54.3636V69.0037H59.2955ZM55.7159 77.731V67.9923C55.7159 67.4469 55.8352 66.9942 56.0739 66.6344C56.3125 66.2707 56.6288 65.9999 57.0227 65.8219C57.4167 65.64 57.8447 65.5491 58.3068 65.5491C58.6477 65.5491 58.9394 65.5775 59.1818 65.6344C59.4242 65.6874 59.6042 65.7366 59.7216 65.7821L59.3239 67.1571C59.2443 67.1344 59.142 67.1079 59.017 67.0775C58.892 67.0435 58.7405 67.0264 58.5625 67.0264C58.1496 67.0264 57.8542 67.1287 57.6761 67.3332C57.5019 67.5378 57.4148 67.8332 57.4148 68.2196V77.731H55.7159ZM61.0483 77.731V69.0037H62.7472V77.731H61.0483ZM61.9062 67.6571C61.6108 67.6571 61.357 67.5586 61.1449 67.3616C60.9366 67.1609 60.8324 66.9222 60.8324 66.6457C60.8324 66.3654 60.9366 66.1268 61.1449 65.9298C61.357 65.7291 61.6108 65.6287 61.9062 65.6287C62.2017 65.6287 62.4536 65.7291 62.6619 65.9298C62.8741 66.1268 62.9801 66.3654 62.9801 66.6457C62.9801 66.9222 62.8741 67.1609 62.6619 67.3616C62.4536 67.5586 62.2017 67.6571 61.9062 67.6571ZM66.7315 72.5491V77.731H65.0327V69.0037H66.6634V70.4241H66.7713C66.9721 69.962 67.2865 69.5908 67.7145 69.3105C68.1463 69.0302 68.6899 68.89 69.3452 68.89C69.9399 68.89 70.4607 69.015 70.9077 69.265C71.3546 69.5113 71.7012 69.8787 71.9474 70.3673C72.1937 70.856 72.3168 71.4601 72.3168 72.1798V77.731H70.6179V72.3844C70.6179 71.7518 70.4531 71.2575 70.1236 70.9014C69.794 70.5416 69.3414 70.3616 68.7656 70.3616C68.3717 70.3616 68.0213 70.4469 67.7145 70.6173C67.4115 70.7878 67.1709 71.0378 66.9929 71.3673C66.8187 71.6931 66.7315 72.087 66.7315 72.5491ZM78.3565 77.9071C77.4967 77.9071 76.7562 77.7234 76.1349 77.356C75.5175 76.9847 75.0402 76.4639 74.7031 75.7935C74.3698 75.1192 74.2031 74.3294 74.2031 73.4241C74.2031 72.5302 74.3698 71.7423 74.7031 71.0605C75.0402 70.3787 75.5099 69.8465 76.1122 69.4639C76.7183 69.0813 77.4266 68.89 78.2372 68.89C78.7296 68.89 79.2069 68.9715 79.669 69.1344C80.1312 69.2972 80.5459 69.5529 80.9134 69.9014C81.2808 70.2499 81.5705 70.7025 81.7827 71.2594C81.9948 71.8124 82.1009 72.4847 82.1009 73.2764V73.8787H75.1634V72.606H80.4361C80.4361 72.159 80.3452 71.7632 80.1634 71.4185C79.9815 71.07 79.7259 70.7954 79.3963 70.5946C79.0705 70.3938 78.688 70.2935 78.2486 70.2935C77.7713 70.2935 77.3546 70.4109 76.9986 70.6457C76.6463 70.8768 76.3736 71.1798 76.1804 71.5548C75.991 71.926 75.8963 72.3294 75.8963 72.765V73.7594C75.8963 74.3427 75.9986 74.8389 76.2031 75.248C76.4115 75.6571 76.7012 75.9696 77.0724 76.1855C77.4437 76.3976 77.8774 76.5037 78.3736 76.5037C78.6955 76.5037 78.9891 76.4582 79.2543 76.3673C79.5194 76.2726 79.7486 76.1325 79.9418 75.9469C80.1349 75.7613 80.2827 75.5321 80.3849 75.2594L81.9929 75.5491C81.8641 76.0226 81.633 76.4374 81.2997 76.7935C80.9702 77.1457 80.5554 77.4204 80.0554 77.6173C79.5592 77.8105 78.9929 77.9071 78.3565 77.9071ZM98.0213 69.8787H96.2486C96.1804 69.4999 96.0535 69.1666 95.8679 68.8787C95.6823 68.5908 95.455 68.3465 95.1861 68.1457C94.9171 67.945 94.616 67.7935 94.2827 67.6912C93.9531 67.5889 93.6027 67.5378 93.2315 67.5378C92.5611 67.5378 91.9607 67.7063 91.4304 68.0435C90.9039 68.3806 90.4872 68.8749 90.1804 69.5264C89.8774 70.1779 89.7259 70.9734 89.7259 71.9128C89.7259 72.8597 89.8774 73.659 90.1804 74.3105C90.4872 74.962 90.9058 75.4544 91.4361 75.7878C91.9664 76.1211 92.563 76.2878 93.2259 76.2878C93.5933 76.2878 93.9418 76.2385 94.2713 76.14C94.6046 76.0378 94.9058 75.8882 95.1747 75.6912C95.4437 75.4942 95.6709 75.2537 95.8565 74.9696C96.0459 74.6817 96.1766 74.3522 96.2486 73.981L98.0213 73.9866C97.9266 74.5586 97.7429 75.0851 97.4702 75.5662C97.2012 76.0435 96.8546 76.4563 96.4304 76.8048C96.0099 77.1495 95.5289 77.4166 94.9872 77.606C94.4455 77.7954 93.8546 77.89 93.2145 77.89C92.2069 77.89 91.3092 77.6514 90.5213 77.1741C89.7334 76.6931 89.1122 76.0056 88.6577 75.1116C88.2069 74.2177 87.9815 73.1514 87.9815 71.9128C87.9815 70.6704 88.2088 69.6041 88.6634 68.7139C89.1179 67.82 89.7391 67.1344 90.527 66.6571C91.3149 66.176 92.2107 65.9355 93.2145 65.9355C93.8319 65.9355 94.4077 66.0245 94.9418 66.2025C95.4796 66.3768 95.9626 66.6344 96.3906 66.9753C96.8187 67.3124 97.1728 67.7253 97.4531 68.2139C97.7334 68.6988 97.9228 69.2537 98.0213 69.8787ZM103.662 77.9071C102.844 77.9071 102.13 77.7196 101.52 77.3446C100.91 76.9696 100.437 76.445 100.099 75.7707C99.7623 75.0965 99.5938 74.3086 99.5938 73.4071C99.5938 72.5018 99.7623 71.7101 100.099 71.0321C100.437 70.3541 100.91 69.8275 101.52 69.4525C102.13 69.0775 102.844 68.89 103.662 68.89C104.48 68.89 105.194 69.0775 105.804 69.4525C106.414 69.8275 106.887 70.3541 107.224 71.0321C107.562 71.7101 107.73 72.5018 107.73 73.4071C107.73 74.3086 107.562 75.0965 107.224 75.7707C106.887 76.445 106.414 76.9696 105.804 77.3446C105.194 77.7196 104.48 77.9071 103.662 77.9071ZM103.668 76.481C104.198 76.481 104.637 76.3408 104.986 76.0605C105.334 75.7802 105.592 75.4071 105.759 74.9412C105.929 74.4753 106.014 73.962 106.014 73.4014C106.014 72.8446 105.929 72.3332 105.759 71.8673C105.592 71.3976 105.334 71.0207 104.986 70.7366C104.637 70.4525 104.198 70.3105 103.668 70.3105C103.134 70.3105 102.69 70.4525 102.338 70.7366C101.99 71.0207 101.73 71.3976 101.56 71.8673C101.393 72.3332 101.31 72.8446 101.31 73.4014C101.31 73.962 101.393 74.4753 101.56 74.9412C101.73 75.4071 101.99 75.7802 102.338 76.0605C102.69 76.3408 103.134 76.481 103.668 76.481ZM109.626 77.731V69.0037H111.257V70.4241H111.365C111.547 69.9431 111.844 69.5681 112.257 69.2991C112.67 69.0264 113.164 68.89 113.74 68.89C114.323 68.89 114.812 69.0264 115.206 69.2991C115.604 69.5719 115.897 69.9469 116.087 70.4241H116.178C116.386 69.9582 116.717 69.587 117.172 69.3105C117.626 69.0302 118.168 68.89 118.797 68.89C119.589 68.89 120.234 69.1382 120.734 69.6344C121.238 70.1306 121.49 70.8787 121.49 71.8787V77.731H119.791V72.0378C119.791 71.4469 119.63 71.0188 119.308 70.7537C118.986 70.4885 118.602 70.356 118.155 70.356C117.602 70.356 117.172 70.5264 116.865 70.8673C116.558 71.2044 116.405 71.6382 116.405 72.1685V77.731H114.712V71.9298C114.712 71.4563 114.564 71.0757 114.268 70.7878C113.973 70.4999 113.589 70.356 113.115 70.356C112.793 70.356 112.496 70.4412 112.223 70.6116C111.954 70.7783 111.736 71.0113 111.57 71.3105C111.407 71.6097 111.325 71.9563 111.325 72.3503V77.731H109.626ZM123.767 77.731V69.0037H125.398V70.4241H125.506C125.688 69.9431 125.985 69.5681 126.398 69.2991C126.811 69.0264 127.305 68.89 127.881 68.89C128.464 68.89 128.953 69.0264 129.347 69.2991C129.744 69.5719 130.038 69.9469 130.227 70.4241H130.318C130.527 69.9582 130.858 69.587 131.312 69.3105C131.767 69.0302 132.309 68.89 132.938 68.89C133.729 68.89 134.375 69.1382 134.875 69.6344C135.379 70.1306 135.631 70.8787 135.631 71.8787V77.731H133.932V72.0378C133.932 71.4469 133.771 71.0188 133.449 70.7537C133.127 70.4885 132.742 70.356 132.295 70.356C131.742 70.356 131.312 70.5264 131.006 70.8673C130.699 71.2044 130.545 71.6382 130.545 72.1685V77.731H128.852V71.9298C128.852 71.4563 128.705 71.0757 128.409 70.7878C128.114 70.4999 127.729 70.356 127.256 70.356C126.934 70.356 126.636 70.4412 126.364 70.6116C126.095 70.7783 125.877 71.0113 125.71 71.3105C125.547 71.6097 125.466 71.9563 125.466 72.3503V77.731H123.767ZM141.669 77.9071C140.809 77.9071 140.069 77.7234 139.447 77.356C138.83 76.9847 138.353 76.4639 138.016 75.7935C137.682 75.1192 137.516 74.3294 137.516 73.4241C137.516 72.5302 137.682 71.7423 138.016 71.0605C138.353 70.3787 138.822 69.8465 139.425 69.4639C140.031 69.0813 140.739 68.89 141.55 68.89C142.042 68.89 142.519 68.9715 142.982 69.1344C143.444 69.2972 143.858 69.5529 144.226 69.9014C144.593 70.2499 144.883 70.7025 145.095 71.2594C145.307 71.8124 145.413 72.4847 145.413 73.2764V73.8787H138.476V72.606H143.749C143.749 72.159 143.658 71.7632 143.476 71.4185C143.294 71.07 143.038 70.7954 142.709 70.5946C142.383 70.3938 142 70.2935 141.561 70.2935C141.084 70.2935 140.667 70.4109 140.311 70.6457C139.959 70.8768 139.686 71.1798 139.493 71.5548C139.304 71.926 139.209 72.3294 139.209 72.765V73.7594C139.209 74.3427 139.311 74.8389 139.516 75.248C139.724 75.6571 140.014 75.9696 140.385 76.1855C140.756 76.3976 141.19 76.5037 141.686 76.5037C142.008 76.5037 142.302 76.4582 142.567 76.3673C142.832 76.2726 143.061 76.1325 143.254 75.9469C143.447 75.7613 143.595 75.5321 143.697 75.2594L145.305 75.5491C145.177 76.0226 144.946 76.4374 144.612 76.7935C144.283 77.1457 143.868 77.4204 143.368 77.6173C142.872 77.8105 142.305 77.9071 141.669 77.9071ZM147.298 77.731V69.0037H148.94V70.39H149.031C149.19 69.9204 149.471 69.551 149.872 69.2821C150.277 69.0094 150.736 68.873 151.247 68.873C151.353 68.873 151.478 68.8768 151.622 68.8844C151.77 68.8919 151.885 68.9014 151.969 68.9128V70.5378C151.901 70.5188 151.779 70.498 151.605 70.4753C151.431 70.4488 151.257 70.4355 151.082 70.4355C150.681 70.4355 150.323 70.5207 150.009 70.6912C149.698 70.8579 149.452 71.0908 149.27 71.39C149.088 71.6855 148.997 72.0226 148.997 72.4014V77.731H147.298ZM156.803 77.9071C155.958 77.9071 155.231 77.7158 154.621 77.3332C154.015 76.9469 153.549 76.4147 153.223 75.7366C152.897 75.0586 152.734 74.2821 152.734 73.4071C152.734 72.5207 152.901 71.7385 153.234 71.0605C153.568 70.3787 154.037 69.8465 154.643 69.4639C155.25 69.0813 155.964 68.89 156.786 68.89C157.448 68.89 158.039 69.0132 158.558 69.2594C159.077 69.5018 159.496 69.8427 159.814 70.2821C160.136 70.7215 160.327 71.2347 160.388 71.8219H158.734C158.643 71.4128 158.435 71.0605 158.109 70.765C157.787 70.4696 157.356 70.3219 156.814 70.3219C156.34 70.3219 155.926 70.4469 155.57 70.6969C155.217 70.9431 154.943 71.2954 154.746 71.7537C154.549 72.2082 154.45 72.7461 154.45 73.3673C154.45 74.0037 154.547 74.5529 154.74 75.015C154.933 75.4772 155.206 75.8351 155.558 76.0889C155.914 76.3427 156.333 76.4696 156.814 76.4696C157.136 76.4696 157.428 76.4109 157.689 76.2935C157.954 76.1722 158.176 75.9999 158.354 75.7764C158.536 75.5529 158.662 75.284 158.734 74.9696H160.388C160.327 75.534 160.143 76.0378 159.837 76.481C159.53 76.9241 159.119 77.2726 158.604 77.5264C158.092 77.7802 157.492 77.9071 156.803 77.9071ZM165.966 77.9071C165.106 77.9071 164.366 77.7234 163.744 77.356C163.127 76.9847 162.65 76.4639 162.312 75.7935C161.979 75.1192 161.812 74.3294 161.812 73.4241C161.812 72.5302 161.979 71.7423 162.312 71.0605C162.65 70.3787 163.119 69.8465 163.722 69.4639C164.328 69.0813 165.036 68.89 165.847 68.89C166.339 68.89 166.816 68.9715 167.278 69.1344C167.741 69.2972 168.155 69.5529 168.523 69.9014C168.89 70.2499 169.18 70.7025 169.392 71.2594C169.604 71.8124 169.71 72.4847 169.71 73.2764V73.8787H162.773V72.606H168.045C168.045 72.159 167.955 71.7632 167.773 71.4185C167.591 71.07 167.335 70.7954 167.006 70.5946C166.68 70.3938 166.297 70.2935 165.858 70.2935C165.381 70.2935 164.964 70.4109 164.608 70.6457C164.256 70.8768 163.983 71.1798 163.79 71.5548C163.6 71.926 163.506 72.3294 163.506 72.765V73.7594C163.506 74.3427 163.608 74.8389 163.812 75.248C164.021 75.6571 164.311 75.9696 164.682 76.1855C165.053 76.3976 165.487 76.5037 165.983 76.5037C166.305 76.5037 166.598 76.4582 166.864 76.3673C167.129 76.2726 167.358 76.1325 167.551 75.9469C167.744 75.7613 167.892 75.5321 167.994 75.2594L169.602 75.5491C169.473 76.0226 169.242 76.4374 168.909 76.7935C168.58 77.1457 168.165 77.4204 167.665 77.6173C167.169 77.8105 166.602 77.9071 165.966 77.9071Z" fill="white"/>
<g clip-path="url(#clip0_219_807)">
<path d="M180.598 37.3228C183.986 24.5525 176.38 11.4535 163.61 8.06552C150.84 4.6775 137.741 12.2834 134.353 25.0537C130.965 37.8241 138.571 50.923 151.341 54.311C164.111 57.6991 177.21 50.0932 180.598 37.3228Z" fill="white"/>
<path d="M180.598 37.3228C183.986 24.5525 176.38 11.4535 163.61 8.06552C150.84 4.6775 137.741 12.2834 134.353 25.0537C130.965 37.8241 138.571 50.923 151.341 54.311C164.111 57.6991 177.21 50.0932 180.598 37.3228Z" stroke="#FBBC04" stroke-width="2"/>
<path d="M165.118 34.0997C163.754 37.5274 161.06 38.3269 159.786 39.0882C158.51 39.852 158.635 40.1048 158.301 41.6332C158.263 41.8231 158.186 42.0031 158.076 42.1621C157.965 42.3212 157.823 42.4559 157.659 42.558C157.494 42.6601 157.31 42.7274 157.119 42.7558C156.927 42.7842 156.732 42.7731 156.544 42.723L152.565 41.6673C152.378 41.6174 152.203 41.5299 152.051 41.4101C151.899 41.2903 151.773 41.1408 151.681 40.9707C151.588 40.8006 151.532 40.6134 151.514 40.4207C151.496 40.2279 151.518 40.0336 151.578 39.8495C151.971 38.3674 152.2 38.0596 151.552 36.9037C150.716 35.4642 148.466 33.1477 149.638 28.7299C149.922 27.6307 150.431 26.6024 151.132 25.7097C151.834 24.817 152.712 24.0792 153.713 23.543C154.714 23.0068 155.815 22.6837 156.947 22.5941C158.078 22.5045 159.217 22.6503 160.289 23.0224C161.362 23.3944 162.346 23.9847 163.179 24.7559C164.012 25.527 164.676 26.4625 165.13 27.5032C165.584 28.5439 165.817 29.6673 165.815 30.8027C165.813 31.938 165.576 33.0606 165.118 34.0997Z" stroke="#FBBC04" stroke-width="2" stroke-linecap="round" stroke-linejoin="round"/>
<path d="M152.27 41.5011L151.67 43.7646C151.506 44.383 151.716 44.9818 152.139 45.0942L155.213 45.9096C155.639 46.0228 156.117 45.6047 156.281 44.9879L156.881 42.7244M157.594 26.0241C156.71 25.79 155.77 25.9165 154.979 26.3759C154.188 26.8353 153.612 27.5899 153.377 28.4739M168.464 34.0485L171.21 34.7769M168.089 24.315L170.553 22.8841M165.174 41.3414L166.605 43.8043M161.272 16.874L160.683 19.0941M150.273 17.5021L151.69 19.9644M143.331 37.6295L145.781 36.1965M146.512 28.2244L143.768 27.4963" stroke="#FBBC04" stroke-width="2" stroke-linecap="round" stroke-linejoin="round"/>
</g>
<defs>
<clipPath id="clip0_219_807">
<rect width="51" height="51" fill="white" transform="translate(139.469) rotate(15)"/>
</clipPath>
</defs>
</svg>
